<?xml version="1.0" encoding="UTF-8" standalone="no"?>
<!-- Created with Inkscape (http://www.inkscape.org/) -->

<svg
   xmlns:dc="http://purl.org/dc/elements/1.1/"
   xmlns:cc="http://creativecommons.org/ns#"
   xmlns:rdf="http://www.w3.org/1999/02/22-rdf-syntax-ns#"
   xmlns:svg="http://www.w3.org/2000/svg"
   xmlns="http://www.w3.org/2000/svg"
   xmlns:sodipodi="http://sodipodi.sourceforge.net/DTD/sodipodi-0.dtd"
   xmlns:inkscape="http://www.inkscape.org/namespaces/inkscape"
   width="210mm"
   height="297mm"
   id="svg2"
   version="1.1"
   inkscape:version="0.48.5 r10040"
   sodipodi:docname="Documento nuevo 1">
  <defs
     id="defs4" />
  <sodipodi:namedview
     id="base"
     pagecolor="#ffffff"
     bordercolor="#666666"
     borderopacity="1.0"
     inkscape:pageopacity="0.0"
     inkscape:pageshadow="2"
     inkscape:zoom="0.62"
     inkscape:cx="350"
     inkscape:cy="520"
     inkscape:document-units="px"
     inkscape:current-layer="layer1"
     showgrid="false"
     inkscape:window-width="1280"
     inkscape:window-height="962"
     inkscape:window-x="-8"
     inkscape:window-y="-8"
     inkscape:window-maximized="1" />
  <metadata
     id="metadata7">
    <rdf:RDF>
      <cc:Work
         rdf:about="">
        <dc:format>image/svg+xml</dc:format>
        <dc:type
           rdf:resource="http://purl.org/dc/dcmitype/StillImage" />
        <dc:title></dc:title>
      </cc:Work>
    </rdf:RDF>
  </metadata>
  <g
     inkscape:label="Capa 1"
     inkscape:groupmode="layer"
     id="layer1">
    <path
       style="fill:#000000;fill-opacity:1"
       id="path3001"
       d="m 90.007885,263.72901 c 6.644205,15.99374 15.952405,30.60624 25.553055,44.94276 6.22523,7.73785 11.09205,17.26139 19.27304,23.29135 1.0069,0.74215 4.55329,0.8578 3.45691,1.45996 -22.00605,12.08639 -19.27818,12.84684 -19.99924,-1.05898 -0.65823,-3.98646 -1.24233,-7.98587 -1.97469,-11.95938 -0.88318,-4.79179 -1.91414,-9.55516 -2.87122,-14.33274 -1.05218,-5.37509 -2.16677,-10.73834 -3.15656,-16.12528 -3.64109,-19.81672 -6.35325,-39.78929 -9.37603,-59.70595 -3.79937,-25.94999 -8.177874,-51.78661 -13.506531,-77.46394 -1.619793,-6.44483 -2.184523,-13.05349 -2.913351,-19.63283 -2.200525,-8.13167 -1.270899,-4.14664 21.824562,-10.5745 1.28629,-0.35799 1.25229,2.35954 1.93122,3.50921 4.48503,7.59478 9.27209,14.88019 14.34099,22.09849 7.03363,9.88967 14.62164,19.36979 22.25371,28.79951 2.75611,3.40528 7.80037,9.8331 11.30602,12.98999 1.26166,1.13614 2.78286,1.94579 4.17429,2.91868 1.07968,-0.21436 4.21845,-1.14553 3.23906,-0.64308 -5.26009,2.69856 -10.26633,7.03791 -16.17334,7.2787 -2.78398,0.11349 3.27128,-4.51243 4.83783,-6.81663 6.45892,-9.50024 12.69107,-19.15325 19.17109,-28.64208 11.39998,-15.36229 22.63489,-31.0333 36.14736,-44.64467 6.65759,-5.32856 25.55786,-21.536656 24.83477,-9.46708 -0.10989,1.83418 -3.34614,8.14362 -3.76849,9.10192 -1.10544,2.50819 -2.12967,5.0514 -3.19451,7.5771 -12.81471,33.01999 -16.94657,68.54991 -21.26817,103.4653 -3.46605,28.92855 -4.38467,58.07391 -4.16463,87.18333 0.32109,5.6415 -0.1578,11.36161 0.65824,16.9772 0.1718,1.18223 0.20091,3.16693 1.38762,3.30441 0.42943,0.0498 0.74629,-0.43655 1.11943,-0.65483 0.60388,-0.40519 1.18912,-0.83964 1.81163,-1.21557 2.87045,-1.73349 11.65278,-6.64249 8.73113,-4.99676 -26.52713,14.94247 -13.09807,7.58446 -6.34308,2.72041 2.49447,-1.82642 3.65255,-4.17037 4.91843,-6.87911 0,0 21.39306,-9.87379 21.39306,-9.87379 l 0,0 c -1.10218,3.09517 -2.03276,5.93165 -4.62391,8.16218 -10.53254,7.7667 -21.63556,13.56986 -33.15471,20.28377 -1.36013,0.79275 -7.50017,4.42795 -9.59976,5.19169 -0.81938,0.29806 -1.72239,0.27256 -2.58359,0.40883 -0.73661,-0.3431 -1.59535,-0.49758 -2.20984,-1.02929 -1.29089,-1.11698 -1.4617,-3.21318 -1.58136,-4.70454 -0.46902,-5.84569 0.26657,-11.72778 0.15557,-17.57459 0.92622,-29.59685 2.82744,-59.17059 6.42149,-88.57374 2.33475,-19.07837 2.87064,-24.30291 5.60696,-43.29779 2.89118,-20.06991 6.07016,-40.23508 12.87832,-59.42141 3.30485,-9.1773 1.63964,-5.04405 4.85109,-12.46297 0.42714,-0.98674 0.64138,-2.09625 1.28143,-2.96022 0.20088,-0.27114 0.70994,0.0391 1.00453,-0.12544 6.56245,-3.66622 13.02387,-7.5109 19.49902,-11.32919 0.8551,-0.50424 -1.75746,0.92365 -2.63619,1.38547 -14.59781,13.02693 -26.04486,29.16263 -37.67848,44.76933 -5.87586,8.64297 -7.52802,10.93476 -13.08663,19.64558 -1.82365,2.85783 -3.61305,5.73769 -5.37581,8.63348 -1.41674,2.32735 -2.02374,5.34641 -4.16209,7.03496 -7.47323,5.90122 -15.67344,10.91123 -24.12361,15.30079 -1.1476,0.59613 -2.53122,-0.53142 -3.79683,-0.79712 -1.32666,-1.17278 -2.76398,-2.23117 -3.97996,-3.51834 -3.00237,-3.17814 -8.2909,-10.35409 -10.70328,-13.5052 -7.39415,-9.65841 -14.89306,-19.23446 -22.36784,-28.83048 -5.298511,-7.11358 -10.476188,-14.29805 -15.650393,-21.50143 -0.766734,-1.06743 -3.261384,-2.3222 -2.29117,-3.20875 20.720793,-18.93389 20.749823,-20.77909 19.969903,-12.44727 -0.0379,6.67262 0.83733,13.30265 1.79657,19.89408 3.82373,26.27322 7.19953,52.60151 10.92018,78.88904 3.05758,19.77623 6.22717,39.52397 10.2166,59.13918 2.67235,13.13938 3.85034,17.3401 6.81051,30.06323 0.91238,3.92152 1.79223,7.85053 2.68834,11.77579 2.8559,15.84365 4.65904,11.05043 -19.50552,24.21399 -1.1543,0.6288 -2.19782,-1.4699 -3.13671,-2.38983 -4.57293,-4.48058 -7.54942,-8.91752 -11.40289,-14.14133 -2.44415,-3.31332 -4.860326,-6.64719 -7.29049,-9.97078 -9.700343,-14.39275 -19.011472,-29.01025 -27.606722,-44.09322 0,0 20.793667,-11.83958 20.793667,-11.83958 z"
       inkscape:connector-curvature="0" />
    <path
       style="fill:#000000;fill-opacity:1"
       id="path3003"
       d="m 239.31843,276.55027 c 3.70436,6.24168 7.77409,12.27319 12.19465,18.03134 2.60002,3.38675 6.97096,8.869 10.3595,11.75671 1.26854,1.08105 2.80377,1.80289 4.20565,2.70433 8.90742,0.67597 11.33174,0.31255 -15.29103,9.64789 -1.27808,0.44816 1.4875,-2.30737 1.87279,-3.60578 0.65324,-2.20138 0.88586,-4.50841 1.2096,-6.78173 0.33413,-2.34632 2.40047,-20.8953 2.52826,-22.0312 4.86115,-35.73202 10.58203,-71.33278 15.148,-107.10633 2.03598,-18.77902 4.25423,-37.53081 6.85301,-56.23917 2.17366,-13.99721 1.11818,-12.91471 23.01855,-20.00527 1.2504,-0.40484 0.45636,2.59723 0.50282,3.91072 0.0841,2.37811 -0.0747,4.75861 -0.112,7.13792 -0.11494,44.10221 2.89111,88.10499 6.11492,132.06159 1.94896,22.39953 3.613,44.89852 7.31285,67.10184 0.97201,5.83313 3.0378,15.88172 5.0848,21.99903 0.56411,1.68582 1.43967,3.25088 2.15951,4.87632 6.98555,5.31997 5.62036,3.36125 -16.34796,10.20147 -1.84663,0.57498 2.75889,-2.72452 3.96249,-4.23845 1.71633,-2.15884 3.19492,-4.49648 4.77764,-6.75509 5.15199,-7.35215 8.28736,-11.93195 13.43628,-19.4003 5.7142,-8.63017 12.0326,-16.8313 18.04026,-25.25279 2.81789,-3.95009 5.36626,-7.65977 7.23189,-12.12165 0.27882,-1.59083 0.23844,-2.01226 -1.2278,-2.38443 0,0 20.07505,-12.97193 20.07505,-12.97193 l 0,0 c 1.95349,1.59922 2.90145,2.79866 2.53715,5.50083 -2.03646,4.92838 -4.86838,8.83191 -8.07531,13.11624 -6.30597,8.42452 -12.89217,16.64748 -18.69529,25.43907 -6.10144,9.02677 -6.95708,10.18443 -12.68011,19.05008 -1.43953,2.23002 -2.82349,4.49558 -4.26301,6.72562 -1.03952,1.61039 -1.54912,3.77797 -3.17375,4.79512 -7.5391,4.72006 -15.4421,9.01607 -23.79016,12.0864 -1.02418,0.37669 -1.31783,-1.73973 -1.97675,-2.6096 -2.75151,-9.34476 -4.07259,-18.89259 -5.15084,-28.57884 -2.52076,-22.64462 -3.7244,-45.42153 -5.51164,-68.12718 -3.54953,-43.35745 -6.68013,-86.74556 -10.10703,-130.11173 -0.17235,-2.21212 -0.36514,-4.42274 -0.51705,-6.63636 -0.049,-0.71429 -0.67854,-1.74479 -0.0857,-2.1462 48.06891,-32.546234 22.27444,-17.423434 19.89534,-10.27951 -0.66948,2.0103 -1.25258,5.50346 -1.6215,7.42249 -3.41434,19.08713 -6.91925,38.15781 -9.34752,57.40742 -5.04838,35.43657 -10.18765,70.87547 -14.0395,106.46596 -0.31333,3.99572 -0.65556,7.98927 -0.94001,11.98715 -0.086,1.20921 -0.8261,14.2267 -1.13933,16.61271 -0.21118,1.60867 0.30842,3.80493 -1.00065,4.76344 -20.06229,14.68989 -15.19647,15.51468 -26.20891,11.4758 -1.3561,-1.10222 -2.8189,-2.08483 -4.06832,-3.30666 -8.81883,-8.62412 -15.79748,-20.06332 -23.47526,-29.72268 0,0 20.3254,-11.86461 20.3254,-11.86461 z"
       inkscape:connector-curvature="0" />
    <path
       style="fill:#000000;fill-opacity:1"
       id="path3005"
       d="m 247.94481,254.99908 c 17.61117,-0.0535 35.23897,-0.23648 52.85534,-0.36286 14.00456,-0.0996 28.00861,-0.26219 42.0121,-0.45983 8.51964,-0.12024 16.96148,-0.0985 25.43852,-0.94984 1.29527,-0.32475 5.01633,-1.685 3.88582,-0.97426 -5.94992,3.74064 -11.99534,7.44106 -18.48048,10.14974 -0.69811,0.29158 -0.18308,-1.53889 -0.54495,-2.20329 -1.03796,-1.90578 -2.30371,-3.68457 -3.60689,-5.41981 -3.27225,-4.35713 -8.58064,-10.23435 -12.10744,-14.25255 -7.06247,-7.88086 -14.59213,-15.32736 -21.72177,-23.14554 -6.05422,-6.63891 -0.91088,-1.35745 -6.31002,-6.78182 -0.72957,-0.51196 -1.32007,-1.33627 -2.18871,-1.53589 -0.39011,-0.0897 -1.21697,1.0224 -0.86357,0.83444 20.9615,-11.14879 16.69538,-18.0377 21.09476,-9.70657 0,0 -20.5306,11.87974 -20.5306,11.87974 l 0,0 c -0.523,-0.83424 -2.31196,-1.85658 -1.56901,-2.50273 14.08108,-12.24644 15.52642,-19.01411 24.01329,-11.10879 9.00202,10.20304 17.58311,20.78399 27.03405,30.59408 1.72621,1.89418 10.89384,11.91158 12.7653,14.12311 1.54561,1.82647 3.16953,3.61276 4.43874,5.64106 0.96745,1.54605 3.59385,3.80076 2.22033,5.00063 -13.56349,11.84873 -15.29295,11.61143 -26.02742,13.04279 -21.99828,0.76815 -44.05959,-0.67043 -66.066,0.24443 -18.38644,0.35925 -36.76708,0.82488 -55.12228,1.9748 0,0 19.38089,-14.08104 19.38089,-14.08104 z"
       inkscape:connector-curvature="0" />
    <path
       style="fill:#000000;fill-opacity:1"
       id="path3007"
       d="m 381.08436,311.55136 c 5.94739,7.90043 13.40155,14.44071 20.69253,21.05186 3.07916,2.03192 8.1791,8.02604 12.4788,7.56634 0.83275,-0.0893 2.77363,-1.87762 2.06409,-1.43267 -5.96652,3.74159 -10.94313,9.88415 -17.83704,11.32386 -2.45024,0.5117 -0.3416,-4.99454 -0.51239,-7.4918 -0.63908,-3.78149 -1.27546,-7.56345 -1.91725,-11.34448 -2.41766,-14.24367 -2.71734,-14.68345 -4.34557,-29.59517 -2.0135,-18.44019 -2.95277,-36.97233 -4.04775,-55.48193 -1.90013,-31.9562 -5.266,-63.79178 -9.77039,-95.47894 -1.71439,-8.49761 -1.94219,-17.32819 -4.01357,-25.75838 -0.0285,-0.0294 -0.057,-0.0587 -0.0854,-0.0881 6.70807,-4.02313 13.04948,-8.73292 20.12422,-12.06938 0.75615,-0.3566 0.0238,1.6782 0.16091,2.50289 0.24249,1.4585 0.56143,2.90755 0.97468,4.32715 1.77932,6.11243 3.05091,8.50691 5.68678,14.71394 15.33789,33.09849 31.41155,65.85077 47.01096,98.82703 4.50322,8.93924 8.14456,18.34974 13.0725,27.08156 0.56636,1.00353 1.11242,2.04729 1.90167,2.8869 0.16738,0.17807 0.93292,-0.22242 0.72768,-0.0895 -6.34329,4.09832 -12.80088,8.01696 -19.20132,12.02543 0.14697,-1.30236 0.33684,-2.6006 0.4409,-3.9071 0.60257,-7.56568 1.02841,-15.09482 2.02834,-22.63123 1.16123,-8.75203 1.80886,-11.56256 3.45546,-20.41208 3.57555,-15.28079 7.63219,-30.55629 13.31184,-45.21324 2.43992,-6.29644 3.70265,-8.56444 6.57337,-14.38421 7.99682,-12.6823 18.09506,-23.49081 32.07448,-30.31164 1.41306,-0.68947 1.085,2.95146 1.62749,4.42719 -7.89083,30.78389 -12.80544,62.19309 -17.55405,93.58146 -3.56778,30.44504 -9.21329,60.92983 -9.30255,91.67339 0.1269,1.34074 0.20532,6.55056 1.5011,8.27507 0.28634,0.38109 0.94484,0.38642 1.40548,0.26382 0.85244,-0.22689 1.55087,-0.84105 2.32843,-1.25761 7.44393,-3.988 2.84942,-1.43744 11.13105,-6.18293 15.95234,-10.8283 -4.59556,4.01059 -7.15429,5.64962 -1.50314,0.96285 2.69137,-2.35105 3.94204,-3.62477 2.69294,-2.74256 4.5798,-5.62817 6.23622,-9.0497 0.31362,-0.81762 0.62725,-1.63525 0.94087,-2.45288 0,0 20.3164,-12.08456 20.3164,-12.08456 l 0,0 c -0.32399,0.86883 -0.64796,1.73765 -0.97195,2.60648 -2.11489,5.38184 -5.52982,10.4302 -10.166,14.02582 -19.08098,14.79843 -16.55912,13.00735 -29.26341,20.92288 -3.40029,1.91102 -11.5758,7.65117 -15.85303,6.33678 -4.34578,-1.33545 -3.07027,-8.30451 -3.38517,-11.26106 1.74243,-31.42194 8.20139,-62.41499 11.92565,-93.61963 4.32607,-30.3529 7.9059,-60.86179 14.03138,-90.92199 8.50235,-2.24561 0.0353,0.19782 18.59777,-13.26505 0.93199,-0.67595 -1.72968,1.52201 -2.54719,2.33267 -3.84524,3.81298 -7.15482,8.09576 -10.21414,12.55576 -3.13752,5.80775 -4.55694,8.1372 -7.22731,14.4495 -6.10476,14.4306 -10.38802,29.63636 -13.60807,44.94306 -2.6915,15.16663 -5.15389,30.47231 -4.39598,45.93708 -6.58515,5.18072 -12.85571,10.78846 -19.75544,15.54214 -0.4397,0.30293 -0.80002,-0.73468 -1.05965,-1.20125 -0.87995,-1.58132 -3.76973,-9.17994 -3.93562,-9.60245 -5.4522,-13.88673 -2.27185,-5.93635 -8.87644,-22.08787 -14.71935,-33.29098 -30.31005,-66.23804 -48.33108,-97.89087 -3.0073,-6.09986 -6.33809,-12.28619 -8.20771,-18.87877 -0.2196,-0.77433 -0.97963,-1.85652 -0.37309,-2.38558 6.19577,-5.4042 13.18666,-9.82408 19.86638,-14.61724 0.096,-0.0688 0.007,0.23626 0.0103,0.35439 0.41523,8.95115 2.04543,17.82112 2.58809,26.7644 2.96868,32.2426 5.63306,64.50641 7.92363,96.80478 2.74102,31.75222 4.03917,63.87897 12.45843,94.79802 0.61226,2.59606 3.37119,5.60647 1.83675,7.78818 -4.98057,7.08147 -12.60063,11.91484 -19.43352,17.23133 -0.76861,0.59802 -1.96531,0.36476 -2.91723,0.15919 -5.02479,-1.08513 -8.61656,-5.88819 -12.57658,-8.67059 -7.39357,-6.63867 -14.92502,-13.12137 -21.64298,-20.46826 0,0 19.03661,-14.51681 19.03661,-14.51681 z"
       inkscape:connector-curvature="0" />
    <path
       style="fill:#000000;fill-opacity:1"
       id="path3009"
       d="m 511.11233,305.8132 c 6.27637,10.16533 13.83928,19.47103 21.02078,28.99993 1.38909,1.75952 4.72718,6.46691 7.0317,7.86117 0.6916,0.41843 1.59931,0.23614 2.39896,0.35422 -6.29606,3.16527 -12.03311,7.86262 -18.88819,9.49582 -1.92868,0.4595 1.68467,-3.61041 2.20979,-5.52227 0.86218,-3.13901 1.29073,-6.38131 1.93609,-9.57196 3.90083,-26.84677 8.18023,-53.63018 12.669,-80.38414 4.2198,-23.54678 7.09422,-47.30493 10.92925,-70.91314 1.063,-5.60554 2.23848,-11.18748 3.24132,-16.80435 0.20275,-1.13563 0.38716,-2.27447 0.58574,-3.41084 0.1041,-0.59576 -0.225,-1.52812 0.32228,-1.78551 7.09933,-3.33883 14.59012,-5.77248 21.88518,-8.65872 2.99687,30.5259 6.49554,61.002 9.92138,91.48343 3.10921,26.71186 6.11518,53.49328 11.89205,79.78488 0.65198,2.29711 1.92435,8.0957 3.71869,10.40512 0.5472,0.70427 1.41261,1.29269 2.30159,1.36437 0.91559,0.0738 3.37679,-1.4261 2.579,-0.97082 -5.66726,3.23416 -11.29045,6.58392 -17.21323,9.32222 -1.44018,0.66585 2.43487,-2.03503 3.6523,-3.05254 8.73551,-9.28431 15.94721,-19.97156 20.84722,-31.73995 2.34335,-5.1559 0.52334,-9.63472 -0.69391,-14.73265 0,0 20.79589,-11.19658 20.79589,-11.19658 l 0,0 c 1.24425,5.60691 3.52212,10.61317 0.83435,16.28569 -4.98434,11.87899 -11.93881,22.75959 -20.30463,32.56283 -8.77035,9.28813 -5.68755,6.72223 -26.87129,16.5488 -1.08667,0.50408 -2.48392,0.0358 -3.56006,-0.4904 -4.70227,-2.29918 -4.58269,-9.70493 -5.85857,-13.74057 -4.7205,-26.79871 -7.10019,-53.91888 -10.06922,-80.95076 -3.34167,-29.91267 -6.39169,-59.96696 -12.7433,-89.42453 6.80111,-4.33481 13.39877,-9.00669 20.40332,-13.00442 0.55187,-0.31496 -0.53329,1.15827 -0.71444,1.76732 -2.00192,6.73065 -2.62537,13.83315 -4.66487,20.5595 -4.80771,23.67191 -8.29211,47.57577 -12.05798,71.4291 -4.48698,26.58074 -9.03644,53.1666 -11.86877,79.98795 -0.40795,3.14836 -0.80709,6.29787 -1.22386,9.44508 -0.29027,2.19202 0.81963,5.17913 -0.89727,6.5725 -20.68368,16.78615 -21.6308,17.12637 -32.07104,2.70656 -7.10331,-9.77696 -14.86123,-19.02532 -22.15647,-28.65431 0,0 20.68122,-11.92803 20.68122,-11.92803 z"
       inkscape:connector-curvature="0" />
    <path
       style="fill:#000000;fill-opacity:1"
       id="path3011"
       d="m 527.19322,266.99425 c 16.89883,2.45754 33.80258,4.72955 50.60164,7.86442 10.17745,1.68878 20.15447,4.32638 30.21552,6.54634 2.69798,0.5953 8.63804,1.91125 11.8061,1.69693 1.05728,-0.0715 2.03253,-0.60056 3.0488,-0.90084 -6.37552,2.99539 -12.26505,7.39265 -19.12656,8.98617 -1.45523,0.33797 -0.0701,-2.99718 -0.3165,-4.47068 -0.37403,-2.23661 -0.93987,-4.43957 -1.53932,-6.62657 -1.78711,-6.51996 -4.30114,-12.63359 -7.12136,-18.75483 -1.59805,-2.90868 -3.49363,-4.94408 -6.38097,-6.44057 0,0 19.96656,-12.81443 19.96656,-12.81443 l 0,0 c 2.82736,2.19279 4.98966,4.62822 6.4763,7.9743 3.45197,8.43039 6.81617,17.01053 9.11208,25.84342 0.44527,1.71306 2.28897,3.93465 1.05544,5.204 -6.01906,6.19384 -13.96042,10.1724 -20.94064,15.2586 -5.46193,0.26516 -9.10731,-0.87404 -14.47081,-2.25053 -9.81673,-2.51936 -19.62273,-5.0884 -29.6318,-6.77193 -10.34171,-1.85641 -12.66641,-2.4079 -23.04805,-3.74125 -8.82675,-1.13366 -17.7158,-1.5233 -26.54195,-2.59094 -1.00318,-0.12134 -1.98512,-0.37903 -2.97769,-0.56854 0,0 19.81321,-13.44307 19.81321,-13.44307 z"
       inkscape:connector-curvature="0" />
  </g>
</svg>
